<svg width="16" height="18" viewBox="0 0 16 18" fill="none" xmlns="http://www.w3.org/2000/svg">
<path d="M11.2995 0.166016C10.4976 0.166016 9.76254 0.500041 9.11458 1.15883C8.49338 1.79042 8.07979 2.59487 7.8363 3.17983C7.59281 2.59483 7.17923 1.79042 6.55802 1.15883C5.91007 0.500041 5.17496 0.166016 4.37315 0.166016C2.13561 0.166016 0.448242 2.57207 0.448242 5.76272C0.448242 9.20973 2.55335 11.5681 5.7402 15.1384C6.28137 15.7447 6.89479 16.432 7.53235 17.1649C7.61639 17.2617 7.72433 17.315 7.8363 17.315C7.94828 17.315 8.05621 17.2617 8.14025 17.165C8.77788 16.4319 9.39126 15.7447 9.93275 15.138C13.1193 11.5681 15.2244 9.20973 15.2244 5.76272C15.2244 2.57207 13.537 0.166016 11.2995 0.166016Z" fill="#FF0000"/>
</svg>
