<svg width="11" height="13" viewBox="0 0 11 13" fill="none" xmlns="http://www.w3.org/2000/svg">
<path d="M10.409 4.73068C10.3759 4.59215 10.2879 4.49119 10.1819 4.47028L7.20447 3.88194L5.87289 0.213269C5.82551 0.08267 5.72768 0 5.62059 0C5.51348 0 5.41567 0.08267 5.36827 0.213269L4.03663 3.88194L1.05927 4.47028C0.953306 4.49119 0.865235 4.59215 0.832144 4.73066C0.799036 4.86919 0.826648 5.02124 0.903352 5.12289L3.05774 7.97856L2.54923 12.0109C2.53111 12.1544 2.57452 12.2995 2.66116 12.3851C2.71018 12.4335 2.76824 12.4581 2.82658 12.4581C2.87137 12.4581 2.91632 12.4436 2.95747 12.4142L5.62057 10.5104L8.28356 12.4142C8.37838 12.4819 8.49324 12.4707 8.57989 12.3851C8.66653 12.2995 8.70996 12.1544 8.69186 12.0108L8.18318 7.97856L10.3378 5.12286C10.4145 5.02124 10.4421 4.86919 10.409 4.73068Z" fill="#F6D060"/>
</svg>
