<svg width="11" height="13" viewBox="0 0 11 13" fill="none" xmlns="http://www.w3.org/2000/svg">
<path d="M10.0164 4.73068C9.98333 4.59215 9.8953 4.49119 9.78931 4.47028L6.81189 3.88194L5.48032 0.213269C5.43293 0.08267 5.33511 0 5.22801 0C5.1209 0 5.02309 0.08267 4.97569 0.213269L3.64406 3.88194L0.666695 4.47028C0.560728 4.49119 0.472656 4.59215 0.439566 4.73066C0.406457 4.86919 0.43407 5.02124 0.510774 5.12289L2.66516 7.97856L2.15665 12.0109C2.13853 12.1544 2.18194 12.2995 2.26858 12.3851C2.3176 12.4335 2.37566 12.4581 2.434 12.4581C2.47879 12.4581 2.52374 12.4436 2.56489 12.4142L5.22799 10.5104L7.89098 12.4142C7.9858 12.4819 8.10066 12.4707 8.18731 12.3851C8.27396 12.2995 8.31738 12.1544 8.29928 12.0108L7.7906 7.97856L9.94523 5.12286C10.0219 5.02124 10.0495 4.86919 10.0164 4.73068Z" fill="#E2E5EA"/>
</svg>
